<svg xmlns="http://www.w3.org/2000/svg"  viewBox="0 0 64 64" width="64px" height="64px"><path fill="#efc88e" d="M56,32c0,0.57-0.02,1.14-0.06,1.7c-0.39,5.5-2.63,10.49-6.11,14.36c-4.34,4.82-10.61,7.87-17.6,7.93	C32.15,56,32.08,56,32,56C18.75,56,8,45.25,8,32c0-7.61,3.55-14.4,9.09-18.79c1.84-1.47,3.9-2.67,6.13-3.54	c1.4-0.56,2.87-0.99,4.39-1.26C29.03,8.14,30.5,8,32,8c0.5,0,1,0.02,1.49,0.05c2.69,0.16,5.25,0.77,7.63,1.75	c6.09,2.5,10.93,7.44,13.29,13.61c0.6,1.55,1.04,3.18,1.3,4.87C55.9,29.49,56,30.73,56,32z"/><path fill="#7e8188" d="M36,18.82c0,2.76-3,1.84-10,8.29C19,33.55,22,40,22,40s-6-0.92-6-7.37c0-6.44,10-14.73,10-18.42	c0-1.64-1.42-3.29-2.78-4.54c1.4-0.56,2.87-0.99,4.39-1.26C31.82,11.8,36,16.68,36,18.82z"/><path fill="#7e8188" d="M32.23,55.99C32.15,56,32.08,56,32,56C18.75,56,8,45.25,8,32c0-7.61,3.55-14.4,9.09-18.79	c1.15,1.51,1.92,3.28,0.91,4.79c-2,3-8.27,10.07-6,18c2,7,7,8,9,8s1,7,5,7C28.34,51,30.68,53.4,32.23,55.99z"/><path fill="#7e8188" d="M55.71,28.28C49.69,27,42,24.22,42,22c0-4.34-5.24-10.26-8.51-13.95c2.69,0.16,5.25,0.77,7.63,1.75	c2.96,9.29,9.28,12.51,13.29,13.61C55.01,24.96,55.45,26.59,55.71,28.28z"/><path fill="#7e8188" d="M55.94,33.7c-0.39,5.5-2.63,10.49-6.11,14.36C47.49,48.54,44.36,49,41,49c-5,0-3-7-14-3	c0,0,4.07-11.51,13-13c6-1,7,3,10,3C52.2,36,54.4,34.79,55.94,33.7z"/><path fill="#8d6c9f" d="M32,57C18.215,57,7,45.785,7,32c0-7.671,3.451-14.805,9.469-19.574	c1.939-1.55,4.09-2.791,6.388-3.688c1.488-0.595,3.031-1.038,4.579-1.313c1.979-0.377,4.093-0.498,6.115-0.374	c2.731,0.163,5.407,0.776,7.95,1.823c6.347,2.606,11.394,7.773,13.843,14.178c0.632,1.633,1.088,3.341,1.354,5.075	C56.898,29.399,57,30.703,57,32c0,0.594-0.021,1.188-0.063,1.771c-0.397,5.596-2.598,10.769-6.364,14.957	c-4.662,5.179-11.325,8.188-18.286,8.261C32.19,56.999,32.101,57,32,57z M32,9c-1.419,0-2.833,0.132-4.203,0.393	c-1.426,0.253-2.837,0.658-4.206,1.206c-2.117,0.826-4.092,1.967-5.877,3.393C12.175,18.38,9,24.944,9,32c0,12.682,10.317,23,23,23	c0.038,0,0.071,0.002,0.109-0.002l0.112-0.007c6.419-0.055,12.566-2.825,16.865-7.599c3.465-3.854,5.49-8.613,5.856-13.762	C54.981,33.092,55,32.546,55,32c0-1.193-0.094-2.393-0.278-3.565c-0.245-1.595-0.663-3.163-1.244-4.664	c-2.255-5.895-6.897-10.648-12.737-13.046c-2.339-0.963-4.798-1.527-7.31-1.677C32.959,9.02,32.479,9,32,9z"/><path fill="#8d6c9f" d="M23.67,41.264l-1.821-0.275C19.479,40.625,15,38.411,15,32.63c0-4.002,3.313-8.363,6.234-12.21	C23.086,17.983,25,15.463,25,14.21c0-0.706-0.426-1.938-2.457-3.804l-1.17-1.075l1.476-0.59c1.496-0.598,3.039-1.041,4.587-1.315	l0.447-0.08l0.354,0.285C31.625,10.359,37,15.809,37,18.82c0,1.999-1.264,2.715-3.012,3.705c-1.588,0.899-3.987,2.258-7.311,5.32	c-6.341,5.833-3.877,11.499-3.769,11.737L23.67,41.264z M25.035,10.079C26.354,11.549,27,12.91,27,14.21	c0,1.926-1.842,4.351-4.173,7.42C20.096,25.226,17,29.301,17,32.63c0,3.499,2.011,5.117,3.522,5.839	c-0.467-2.582-0.358-7.349,4.801-12.095c3.492-3.218,6.012-4.645,7.679-5.589C34.813,19.759,35,19.575,35,18.82	c0-1.43-3.319-5.758-7.661-9.341C26.567,9.634,25.797,9.834,25.035,10.079z"/><path fill="#8d6c9f" d="M32,57C18.215,57,7,45.785,7,32c0-7.671,3.451-14.805,9.469-19.574l0.799-0.633l0.618,0.811	c2.168,2.846,1.711,4.808,0.945,5.952c-0.258,0.387-0.587,0.843-0.96,1.358c-2.527,3.498-6.758,9.352-4.91,15.811	C14.939,42.649,20.005,43,21,43c1.601,0,2.046,1.706,2.478,3.355C24.053,48.557,24.538,50,26,50c2.386,0,5.035,2.047,7.089,5.477	l0.79,1.32l-1.527,0.187C32.229,56.998,32.122,57,32,57z M16.881,14.683C11.859,19.052,9,25.304,9,32	c0,12.114,9.414,22.071,21.311,22.938C28.885,53.093,27.313,52,26,52c-3.115,0-3.923-3.093-4.458-5.139	c-0.167-0.642-0.416-1.592-0.633-1.861c-1.437-0.022-7.551-0.604-9.871-8.725c-2.115-7.393,2.651-13.988,5.212-17.532	c0.356-0.492,0.671-0.927,0.918-1.298C17.64,16.74,17.543,15.813,16.881,14.683z"/><path fill="#8d6c9f" d="M56.918,29.559l-1.416-0.301C54.91,29.132,41,26.127,41,22c0-3.966-5.17-9.801-8.258-13.287	l-1.6-1.805l2.407,0.144c2.732,0.163,5.407,0.776,7.951,1.823l0.431,0.177l0.142,0.444c2.883,9.05,9.133,11.998,12.602,12.95	l0.486,0.133l0.182,0.47c0.633,1.636,1.089,3.345,1.355,5.079L56.918,29.559z M35.955,9.341C39.229,13.131,43,18.004,43,22	c0.076,0.975,4.826,3.377,11.446,4.968c-0.207-0.928-0.474-1.844-0.797-2.737c-3.871-1.179-10.236-4.482-13.334-13.676	C38.899,10.004,37.44,9.598,35.955,9.341z"/><path fill="#8d6c9f" d="M41,50c-2.271,0-3.402-1.201-4.399-2.26c-1.504-1.597-2.925-3.104-9.259-0.8l-1.991,0.724	l0.707-1.997c0.174-0.493,4.375-12.083,13.777-13.653c4.076-0.678,6.189,0.802,7.736,1.883C48.453,34.513,49.149,35,50,35	c1.961,0,3.999-1.151,5.362-2.116l1.726-1.221l-0.15,2.108c-0.397,5.597-2.598,10.769-6.364,14.958l-0.22,0.245l-0.322,0.066	C47.896,49.478,44.595,50,41,50z M32.609,43.768c2.685,0,4.108,1.18,5.447,2.601C38.948,47.316,39.593,48,41,48	c3.251,0,6.258-0.45,8.305-0.854c2.885-3.298,4.731-7.238,5.408-11.505C53.325,36.387,51.676,37,50,37	c-1.48,0-2.545-0.744-3.574-1.464c-1.473-1.03-2.992-2.092-6.262-1.55C34.092,35,30.359,41.148,28.796,44.369	C30.309,43.949,31.556,43.768,32.609,43.768z"/><path fill="#8d6c9f" d="M57.613,50.452c-0.194,0-0.39-0.056-0.563-0.174l-1.652-1.127c-0.456-0.311-0.574-0.934-0.263-1.39 c0.311-0.457,0.933-0.574,1.39-0.263l1.652,1.127c0.456,0.311,0.574,0.934,0.263,1.39C58.247,50.299,57.933,50.452,57.613,50.452z"/><path fill="#8d6c9f" d="M53.916,54.917c-0.256,0-0.512-0.098-0.707-0.292l-1.415-1.414c-0.391-0.39-0.391-1.023,0-1.414 c0.391-0.392,1.023-0.391,1.414-0.001l1.415,1.414c0.391,0.39,0.391,1.023,0,1.414C54.428,54.82,54.172,54.917,53.916,54.917z"/><path fill="#8d6c9f" d="M49.454,58.619c-0.319,0-0.633-0.152-0.827-0.436l-1.128-1.652 c-0.312-0.456-0.193-1.079,0.263-1.39c0.455-0.312,1.078-0.194,1.39,0.262l1.128,1.652c0.312,0.456,0.193,1.079-0.263,1.39 C49.845,58.563,49.648,58.619,49.454,58.619z"/><g><path fill="#8d6c9f" d="M8.037,16.675c-0.194,0-0.39-0.056-0.563-0.174l-1.652-1.127c-0.456-0.311-0.574-0.934-0.263-1.39 c0.311-0.457,0.933-0.574,1.39-0.263l1.652,1.127c0.456,0.311,0.574,0.934,0.263,1.39C8.671,16.522,8.356,16.675,8.037,16.675z"/><path fill="#8d6c9f" d="M11.499,12.496c-0.256,0-0.512-0.098-0.707-0.292L9.377,10.79c-0.391-0.391-0.391-1.024,0-1.415 s1.023-0.39,1.414,0l1.415,1.414c0.391,0.391,0.391,1.024,0,1.415C12.011,12.398,11.755,12.496,11.499,12.496z"/><path fill="#8d6c9f" d="M15.676,9.032c-0.319,0-0.633-0.152-0.827-0.436l-1.128-1.652c-0.312-0.456-0.193-1.079,0.263-1.39 c0.454-0.312,1.078-0.194,1.39,0.262l1.128,1.652c0.312,0.456,0.193,1.079-0.263,1.39C16.066,8.976,15.87,9.032,15.676,9.032z"/></g></svg>